<svg id="Layer_1" data-name="Layer 1" xmlns="http://www.w3.org/2000/svg" viewBox="0 0 103.06 119"><defs><style>.cls-1{fill:#485a5c;}</style></defs><polygon class="cls-1" points="51.53 20.79 18 40.14 18 47.78 85.06 47.78 85.06 40.14 51.53 20.79"/><polygon class="cls-1" points="18 78.86 51.53 98.22 85.06 78.86 85.06 71.22 18 71.22 18 78.86"/><polygon class="cls-1" points="51.53 10.39 94.06 34.95 94.06 47.78 103.06 47.78 103.06 29.75 51.53 0 0 29.75 0 47.78 9 47.78 9 34.95 51.53 10.39"/><polygon class="cls-1" points="51.53 108.61 9 84.06 9 71.22 0 71.22 0 89.25 51.53 119 103.06 89.25 103.06 71.22 94.06 71.22 94.06 84.06 51.53 108.61"/><rect class="cls-1" x="85.06" y="47.78" width="9" height="23.44"/><rect class="cls-1" x="9" y="47.78" width="9" height="23.44"/></svg>
