<svg id="Layer_1" data-name="Layer 1" xmlns="http://www.w3.org/2000/svg" viewBox="0 0 104.6 120.78"><defs><style>.cls-1{fill:none;stroke:#012a28;stroke-miterlimit:10;stroke-width:18px;}.cls-2{fill:#007062;}</style></defs><polygon class="cls-1" points="52.3 10.39 9 35.39 9 85.39 52.3 110.39 95.6 85.39 95.6 35.39 52.3 10.39"/><polygon class="cls-2" points="52.3 21.68 18.77 41.03 18.77 48.67 85.83 48.67 85.83 41.03 52.3 21.68"/><polygon class="cls-2" points="18.77 79.75 52.3 99.11 85.83 79.75 85.83 72.11 18.77 72.11 18.77 79.75"/><polygon class="cls-2" points="52.3 11.28 94.83 35.84 94.83 48.67 103.83 48.67 103.83 30.64 52.3 0.89 0.77 30.64 0.77 48.67 9.77 48.67 9.77 35.84 52.3 11.28"/><polygon class="cls-2" points="52.3 109.5 9.77 84.95 9.77 72.11 0.77 72.11 0.77 90.14 52.3 119.89 103.83 90.14 103.83 72.11 94.83 72.11 94.83 84.95 52.3 109.5"/><rect class="cls-2" x="85.83" y="48.67" width="9" height="23.44"/><rect class="cls-2" x="9.77" y="48.67" width="9" height="23.44"/></svg>
